<svg xmlns="http://www.w3.org/2000/svg" viewBox="0 0 1200 630" width="1200" height="630" role="img" aria-label="Ardorio">
  <defs>
    <radialGradient id="glow" cx="50%" cy="50%" r="55%">
      <stop offset="0%" stop-color="#863BFF" stop-opacity="0.22"/>
      <stop offset="45%" stop-color="#47BFFF" stop-opacity="0.12"/>
      <stop offset="75%" stop-color="#863BFF" stop-opacity="0"/>
    </radialGradient>
  </defs>
  <rect width="1200" height="630" fill="#F8F5F0"/>
  <rect x="600" y="60" width="540" height="510" fill="url(#glow)"/>
  <g transform="translate(600 315) scale(4.2) translate(-24 -23)">
    <path fill="#863BFF" d="M25.946 44.938c-.664.845-2.021.375-2.021-.698V33.937a2.26 2.26 0 0 0-2.262-2.262H10.287c-.92 0-1.456-1.04-.92-1.788l7.48-10.471c1.07-1.497 0-3.578-1.842-3.578H1.237c-.92 0-1.456-1.04-.92-1.788L10.013.474c.214-.297.556-.474.92-.474h28.894c.92 0 1.456 1.04.92 1.788l-7.48 10.471c-1.07 1.498 0 3.579 1.842 3.579h11.377c.943 0 1.473 1.088.89 1.83L25.947 44.94z"/>
  </g>
  <text x="80" y="540" font-family="'IBM Plex Mono', monospace" font-size="26" letter-spacing="4" fill="#78716C">ARDORIO · NEWSROOM</text>
</svg>
